<svg xmlns="http://www.w3.org/2000/svg" width="20.219" height="15.938" viewBox="0 0 20.219 15.938">
  <defs>
    <style>
      .cls-1 {
        fill: #133ec8;
        fill-rule: evenodd;
      }
    </style>
  </defs>
  <path id="_01.svg" data-name="01.svg" class="cls-1" d="M89.659,856.212a4.523,4.523,0,0,0,1.474-3.6v-6.16a4.523,4.523,0,0,0-1.474-3.6,5.578,5.578,0,0,0-7.128,0,4.522,4.522,0,0,0-1.474,3.6v6.16a4.522,4.522,0,0,0,1.474,3.6A5.578,5.578,0,0,0,89.659,856.212Zm-2.134-3.575a1.646,1.646,0,0,1-.4,1.21,1.4,1.4,0,0,1-1.034.4,1.384,1.384,0,0,1-1.023-.407,1.624,1.624,0,0,1-.407-1.2v-6.182a1.659,1.659,0,0,1,.407-1.221,1.388,1.388,0,0,1,1.023-.407,1.362,1.362,0,0,1,1.034.418,1.694,1.694,0,0,1,.4,1.21v6.182Zm13.75,4.752V841.7H97.667l-3.344,2.971v3.937l3.344-3.058v11.836h3.608Z" transform="translate(-81.063 -841.562)"/>
</svg>
