<svg xmlns="http://www.w3.org/2000/svg" width="23.031" height="15.94" viewBox="0 0 23.031 15.94">
  <defs>
    <style>
      .cls-1 {
        fill: #133ec8;
        fill-rule: evenodd;
      }
    </style>
  </defs>
  <path id="_05.svg" data-name="05.svg" class="cls-1" d="M89.659,3013.21a4.511,4.511,0,0,0,1.474-3.59v-6.16a4.532,4.532,0,0,0-1.474-3.6,5.568,5.568,0,0,0-7.128,0,4.531,4.531,0,0,0-1.474,3.6v6.16a4.51,4.51,0,0,0,1.474,3.59A5.568,5.568,0,0,0,89.659,3013.21Zm-2.134-3.57a1.66,1.66,0,0,1-.4,1.21,1.411,1.411,0,0,1-1.034.39,1.387,1.387,0,0,1-1.023-.4,1.622,1.622,0,0,1-.407-1.2v-6.18a1.682,1.682,0,0,1,.407-1.23,1.387,1.387,0,0,1,1.023-.4,1.356,1.356,0,0,1,1.034.42,1.676,1.676,0,0,1,.4,1.21v6.18Zm16.269,1.76a7.825,7.825,0,0,0,.3-2.38,8.284,8.284,0,0,0-.286-2.31,3.872,3.872,0,0,0-.979-1.66,4.274,4.274,0,0,0-1.474-.99,4.848,4.848,0,0,0-1.749-.3,3.863,3.863,0,0,0-1.254.2,2.952,2.952,0,0,0-.858.42v-2.42h6.27v-3.26H94.213v9.22h3.278a2.1,2.1,0,0,1,.48-0.81,1.365,1.365,0,0,1,1.016-.31,1.316,1.316,0,0,1,1.116.49,2.943,2.943,0,0,1,.38,1.73,2.614,2.614,0,0,1-.429,1.79,1.409,1.409,0,0,1-1.045.43,1.3,1.3,0,0,1-1.034-.41,2.271,2.271,0,0,1-.44-1.24H93.927a5.885,5.885,0,0,0,.3,1.88,4,4,0,0,0,.979,1.58,4.84,4.84,0,0,0,1.617,1.06,5.657,5.657,0,0,0,2.189.39,5.432,5.432,0,0,0,2.145-.39A4.63,4.63,0,0,0,103.794,3011.4Z" transform="translate(-81.063 -2998.56)"/>
</svg>
