<svg xmlns="http://www.w3.org/2000/svg" width="23.126" height="15.94" viewBox="0 0 23.126 15.94">
  <defs>
    <style>
      .cls-1 {
        fill: #133ec8;
        fill-rule: evenodd;
      }
    </style>
  </defs>
  <path id="_06.svg" data-name="06.svg" class="cls-1" d="M89.659,3400.21a4.511,4.511,0,0,0,1.474-3.59v-6.16a4.532,4.532,0,0,0-1.474-3.6,5.568,5.568,0,0,0-7.128,0,4.531,4.531,0,0,0-1.474,3.6v6.16a4.51,4.51,0,0,0,1.474,3.59A5.568,5.568,0,0,0,89.659,3400.21Zm-2.134-3.57a1.66,1.66,0,0,1-.4,1.21,1.411,1.411,0,0,1-1.034.39,1.387,1.387,0,0,1-1.023-.4,1.622,1.622,0,0,1-.407-1.2v-6.18a1.682,1.682,0,0,1,.407-1.23,1.387,1.387,0,0,1,1.023-.4,1.356,1.356,0,0,1,1.034.42,1.676,1.676,0,0,1,.4,1.21v6.18Zm15.173,3.54a4.717,4.717,0,0,0,1.485-3.72A4.615,4.615,0,0,0,102.9,3393a4.009,4.009,0,0,0-2.893-1.27c-0.117,0-.264.01-0.44,0.02a2.132,2.132,0,0,0-.44.09l3.1-6.14h-3.96l-3.014,6.21q-0.836,1.71-1.166,2.58a5.537,5.537,0,0,0-.33,1.97,4.689,4.689,0,0,0,1.507,3.71A5.878,5.878,0,0,0,102.7,3400.18Zm-2.574-5.03a1.824,1.824,0,0,1,.451,1.31,1.783,1.783,0,0,1-.462,1.31,1.64,1.64,0,0,1-2.3,0,2.108,2.108,0,0,1,.011-2.62A1.64,1.64,0,0,1,100.124,3395.15Z" transform="translate(-81.063 -3385.56)"/>
</svg>
