<svg xmlns="http://www.w3.org/2000/svg" width="23.219" height="15.94" viewBox="0 0 23.219 15.94">
  <defs>
    <style>
      .cls-1 {
        fill: #133ec8;
        fill-rule: evenodd;
      }
    </style>
  </defs>
  <path id="_08.svg" data-name="08.svg" class="cls-1" d="M89.659,4768.21a4.511,4.511,0,0,0,1.474-3.59v-6.16a4.532,4.532,0,0,0-1.474-3.6,5.568,5.568,0,0,0-7.128,0,4.531,4.531,0,0,0-1.474,3.6v6.16a4.51,4.51,0,0,0,1.474,3.59A5.568,5.568,0,0,0,89.659,4768.21Zm-2.134-3.57a1.66,1.66,0,0,1-.4,1.21,1.411,1.411,0,0,1-1.034.39,1.387,1.387,0,0,1-1.023-.4,1.622,1.622,0,0,1-.407-1.2v-6.18a1.682,1.682,0,0,1,.407-1.23,1.387,1.387,0,0,1,1.023-.4,1.356,1.356,0,0,1,1.034.42,1.676,1.676,0,0,1,.4,1.21v6.18Zm15.283,3.62a4.419,4.419,0,0,0,1.474-3.58,3.493,3.493,0,0,0-.506-2.01,6.566,6.566,0,0,0-1.254-1.35,6.5,6.5,0,0,0,1.122-1.28,3.211,3.211,0,0,0,.484-1.83,4.171,4.171,0,0,0-1.5-3.38,5.811,5.811,0,0,0-7.227,0,4.224,4.224,0,0,0-1.485,3.4,3.284,3.284,0,0,0,.462,1.83,5.829,5.829,0,0,0,1.144,1.28,6.136,6.136,0,0,0-1.243,1.35,3.471,3.471,0,0,0-.517,2,4.378,4.378,0,0,0,1.485,3.58,5.717,5.717,0,0,0,3.773,1.23A5.658,5.658,0,0,0,102.808,4768.26Zm-2.717-11a1.561,1.561,0,0,1,0,2.15,1.538,1.538,0,0,1-2.134,0,1.561,1.561,0,0,1,0-2.15A1.538,1.538,0,0,1,100.091,4757.26Zm0.1,6.19a1.62,1.62,0,0,1,0,2.31,1.656,1.656,0,0,1-2.332,0,1.62,1.62,0,0,1,0-2.31A1.656,1.656,0,0,1,100.19,4763.45Z" transform="translate(-81.063 -4753.56)"/>
</svg>
