<svg xmlns="http://www.w3.org/2000/svg" width="114.813" height="135.66" viewBox="0 0 114.813 135.66">
  <defs>
    <style>
      .cls-1 {
        fill: #133ec8;
        fill-rule: evenodd;
      }
    </style>
  </defs>
  <path id="voice01.svg" class="cls-1" d="M323.144,1276.73q6.668,4.68,17.154,4.68t17.154-4.68a24.7,24.7,0,0,0,9.385-13.13,19.478,19.478,0,0,0,.842-3.13c0.214-1.16.408-2.69,0.582-4.62s0.3-4.42.389-7.49,0.129-7.04.129-11.91-0.044-8.84-.129-11.92-0.217-5.57-.389-7.49-0.368-3.46-.582-4.61a19.9,19.9,0,0,0-.842-3.14,24.737,24.737,0,0,0-9.385-13.13q-6.671-4.665-17.154-4.67t-17.154,4.67a24.726,24.726,0,0,0-9.385,13.13,19.476,19.476,0,0,0-.842,3.14c-0.216,1.15-.411,2.69-0.582,4.61s-0.3,4.42-.389,7.49-0.129,7.05-.129,11.92,0.042,8.84.129,11.91,0.215,5.57.389,7.49,0.366,3.46.582,4.62a19.07,19.07,0,0,0,.842,3.13A24.688,24.688,0,0,0,323.144,1276.73Zm7.768-18.38a35.084,35.084,0,0,1-.324-3.65c-0.087-1.66-.151-3.93-0.194-6.79s-0.064-6.68-.064-11.46,0.02-8.6.064-11.47,0.107-5.12.194-6.79a35.363,35.363,0,0,1,.324-3.65,18.4,18.4,0,0,1,.453-2.05q1.942-5.88,8.933-5.89t8.933,5.89a18.866,18.866,0,0,1,.453,2.05,35.947,35.947,0,0,1,.324,3.65q0.126,2.5.194,6.79,0.063,4.3.064,11.47t-0.064,11.46c-0.045,2.86-.11,5.13-0.194,6.79a35.658,35.658,0,0,1-.324,3.65,18.866,18.866,0,0,1-.453,2.05q-1.942,5.895-8.933,5.89t-8.933-5.89A18.4,18.4,0,0,1,330.912,1258.35Zm68.816,20.37a1.138,1.138,0,0,0,1.294,1.28h15.535a1.14,1.14,0,0,0,1.295-1.28v-84.54a1.143,1.143,0,0,0-1.295-1.29h-14.5a3.483,3.483,0,0,0-2.33.77l-14.759,10.51a2.288,2.288,0,0,0-.906,1.79v15.88c0,1.12.473,1.37,1.424,0.77l13.982-9.48h0.259v65.59Zm-72.365-103.46a0.514,0.514,0,0,0,.517-0.42l9.322-28.14a0.319,0.319,0,0,0-.346-0.47H331.29a0.538,0.538,0,0,0-.561.43l-5.7,19.04H324.9l-5.869-19.04a0.539,0.539,0,0,0-.561-0.43h-5.61c-0.345,0-.475.16-0.388,0.47l9.321,28.14a0.539,0.539,0,0,0,.561.42h5.006Zm29.8-1.28a9.161,9.161,0,0,0,3.992-5.29,12.567,12.567,0,0,0,.41-1.5,15.134,15.134,0,0,0,.237-1.62c0.058-.6.1-1.28,0.13-2.05s0.043-1.69.043-2.77-0.015-2.01-.043-2.78-0.072-1.45-.13-2.05a15.134,15.134,0,0,0-.237-1.62,13.684,13.684,0,0,0-.41-1.5,9.276,9.276,0,0,0-3.992-5.27,13.6,13.6,0,0,0-13.42,0,9.272,9.272,0,0,0-3.992,5.27,13.464,13.464,0,0,0-.41,1.5,14.643,14.643,0,0,0-.237,1.62c-0.058.6-.1,1.28-0.13,2.05s-0.043,1.7-.043,2.78,0.014,2,.043,2.77,0.072,1.45.13,2.05a14.643,14.643,0,0,0,.237,1.62,12.381,12.381,0,0,0,.41,1.5,9.157,9.157,0,0,0,3.992,5.29A13.739,13.739,0,0,0,357.161,1173.98Zm-9.688-4.65a4.5,4.5,0,0,1-1.639-2.35,6.144,6.144,0,0,1-.216-0.87q-0.087-.495-0.151-1.2c-0.043-.47-0.072-1.05-0.087-1.73s-0.021-1.49-.021-2.43,0.007-1.75.021-2.44,0.044-1.26.087-1.73,0.093-.86.151-1.19a5.966,5.966,0,0,1,.216-0.88,4.545,4.545,0,0,1,1.639-2.35,5.642,5.642,0,0,1,5.956,0,4.55,4.55,0,0,1,1.639,2.35,6.1,6.1,0,0,1,.216.88c0.057,0.33.108,0.72,0.151,1.19s0.072,1.05.086,1.73,0.022,1.5.022,2.44-0.007,1.75-.022,2.43-0.043,1.26-.086,1.73-0.094.87-.151,1.2a6.284,6.284,0,0,1-.216.87,4.51,4.51,0,0,1-1.639,2.35A5.642,5.642,0,0,1,347.473,1169.33Zm20.192,5.51a0.377,0.377,0,0,0,.432.42h5.48a0.377,0.377,0,0,0,.432-0.42v-28.18a0.38,0.38,0,0,0-.432-0.43H368.1a0.38,0.38,0,0,0-.432.43v28.18Zm16.572-.88a11.73,11.73,0,0,0,6.581,1.77,11.522,11.522,0,0,0,6.365-1.68,10,10,0,0,0,3.862-4.76,0.315,0.315,0,0,0-.216-0.52l-4.7-2.09a0.394,0.394,0,0,0-.6.22,6.3,6.3,0,0,1-1.7,2.34,4.384,4.384,0,0,1-2.956.94,4.472,4.472,0,0,1-2.827-.85,4.659,4.659,0,0,1-1.575-2.35,6.6,6.6,0,0,1-.216-0.83c-0.058-.3-0.108-0.68-0.151-1.13s-0.072-1.03-.086-1.71-0.022-1.54-.022-2.56,0.007-1.88.022-2.57,0.043-1.25.086-1.7,0.093-.84.151-1.13a6.764,6.764,0,0,1,.216-0.84,4.7,4.7,0,0,1,1.575-2.35,4.533,4.533,0,0,1,2.827-.85,4.384,4.384,0,0,1,2.956.94,6.336,6.336,0,0,1,1.7,2.35,0.4,0.4,0,0,0,.6.21l4.7-2.09a0.309,0.309,0,0,0,.216-0.51,9.957,9.957,0,0,0-3.862-4.76,11.442,11.442,0,0,0-6.365-1.69,11.73,11.73,0,0,0-6.581,1.77,9.741,9.741,0,0,0-3.863,5.36,11.49,11.49,0,0,0-.41,1.41,12.823,12.823,0,0,0-.237,1.56c-0.058.58-.1,1.26-0.129,2.05s-0.043,1.73-.043,2.84,0.014,2.05.043,2.84,0.071,1.46.129,2.05a14.2,14.2,0,0,0,.237,1.58,9.38,9.38,0,0,0,.41,1.38A9.741,9.741,0,0,0,384.237,1173.96Zm22.721,0.88a0.377,0.377,0,0,0,.432.42h18.815a0.376,0.376,0,0,0,.431-0.42v-4.57a0.379,0.379,0,0,0-.431-0.43H413.561a0.224,0.224,0,0,1-.259-0.25v-6.03a0.224,0.224,0,0,1,.259-0.25H424.09a0.38,0.38,0,0,0,.432-0.43v-4.52a0.38,0.38,0,0,0-.432-0.43H413.561a0.231,0.231,0,0,1-.259-0.26v-5.76a0.231,0.231,0,0,1,.259-0.26h12.644a0.379,0.379,0,0,0,.431-0.43v-4.56a0.379,0.379,0,0,0-.431-0.43H407.39a0.38,0.38,0,0,0-.432.43v28.18Z" transform="translate(-311.812 -1145.75)"/>
</svg>
