<?xml version="1.0" encoding="utf-8"?>
<!-- Generator: Adobe Illustrator 21.1.0, SVG Export Plug-In . SVG Version: 6.00 Build 0)  -->
<svg version="1.1" id="レイヤー_1" xmlns="http://www.w3.org/2000/svg" xmlns:xlink="http://www.w3.org/1999/xlink" x="0px"
	 y="0px" viewBox="0 0 95.8 22.1" style="enable-background:new 0 0 95.8 22.1;" xml:space="preserve">
<style type="text/css">
	.st0{fill:#FFFFFF;}
</style>
<path id="_200_scroll.svg" class="st0" d="M12.2,20.6c1.2-0.9,1.8-2.4,1.8-3.9c0-1.2-0.4-2.3-1.2-3.2c-1.1-1-2.5-1.5-4-1.5l-1.7-0.2
	c-0.6,0-1.2-0.2-1.7-0.4C5.2,11.3,5,10.9,5,10.6c0-0.4,0.2-0.7,0.5-0.9c0.4-0.3,1-0.4,1.5-0.4c0.8,0,1.6,0.1,2.3,0.4
	c0.7,0.2,1.3,0.5,1.9,0.9c0.1,0.1,0.3,0.1,0.4-0.1c0,0,0,0,0,0l1.8-2.2c0.1-0.1,0.1-0.3,0-0.5c0,0,0,0,0,0c-0.8-0.6-1.7-1.1-2.7-1.4
	C9.5,6.1,8.3,5.9,7.1,5.9C5.4,5.8,3.8,6.3,2.4,7.2c-1.1,0.9-1.7,2.2-1.7,3.6c-0.1,1.2,0.4,2.4,1.3,3.3c1.1,0.9,2.4,1.4,3.8,1.4
	l1.7,0.2c0.6,0,1.2,0.2,1.8,0.5c0.3,0.2,0.4,0.5,0.4,0.9c0,0.4-0.2,0.8-0.6,1.1c-0.5,0.3-1.2,0.5-1.8,0.4c-0.8,0-1.7-0.2-2.5-0.4
	c-0.8-0.3-1.6-0.7-2.3-1.2c-0.1-0.1-0.3-0.1-0.4,0c0,0,0,0,0,0l-2.1,2.3c-0.1,0.1-0.1,0.3-0.1,0.4c0,0,0,0,0.1,0.1
	c0.9,0.7,1.8,1.3,2.9,1.7c1.3,0.5,2.8,0.8,4.2,0.7C8.9,22.2,10.7,21.7,12.2,20.6z M30.1,21.3c0.9-0.5,1.7-1.2,2.3-2.1
	c0.1-0.1,0.1-0.3,0-0.4c0,0,0,0,0,0l-2.8-1.8c-0.1-0.1-0.3-0.1-0.4,0c0,0,0,0,0,0.1c-0.3,0.4-0.6,0.8-1.1,1
	c-0.4,0.2-0.9,0.3-1.4,0.3c-0.5,0-1.1-0.1-1.5-0.4c-0.4-0.3-0.7-0.7-0.9-1.2c-0.1-0.4-0.2-0.7-0.2-1.1c0-0.4-0.1-0.9-0.1-1.6
	s0-1.2,0.1-1.6c0-0.4,0.1-0.7,0.2-1.1c0.1-0.5,0.4-0.9,0.9-1.2c0.5-0.3,1-0.4,1.5-0.4c0.5,0,1,0.1,1.4,0.3c0.4,0.3,0.8,0.6,1.1,1
	c0.1,0.1,0.3,0.2,0.4,0.1c0,0,0,0,0.1,0l2.8-1.8c0.1-0.1,0.2-0.3,0.1-0.4c0,0,0,0,0,0c-0.6-0.9-1.4-1.6-2.3-2.1
	c-1.1-0.6-2.3-0.8-3.5-0.8c-1.5,0-2.9,0.3-4.2,1.1c-1.2,0.8-2.1,1.9-2.5,3.3c-0.2,0.5-0.3,1.1-0.4,1.6c-0.1,1.4-0.1,2.8,0,4.2
	c0.1,0.5,0.2,1.1,0.4,1.6c0.4,1.4,1.3,2.5,2.5,3.3c1.3,0.8,2.7,1.1,4.2,1.1C27.8,22.1,29.1,21.8,30.1,21.3z M43.6,21.8
	c0.2,0,0.3-0.1,0.3-0.2c0,0,0-0.1,0-0.1v-8.2c0-0.8,0.2-1.7,0.6-2.4c0.4-0.6,1.1-0.9,1.8-0.9c0.8,0,1.6,0.2,2.2,0.7
	c0.1,0.1,0.3,0.1,0.4-0.1l1.8-3.3c0.1-0.2,0-0.3-0.1-0.4c-0.4-0.3-0.8-0.5-1.2-0.7C49,6,48.5,5.9,48,5.9c-0.9,0-1.7,0.2-2.5,0.5
	c-0.7,0.3-1.2,0.8-1.6,1.5h0V6.6c0-0.2-0.1-0.3-0.2-0.3c0,0-0.1,0-0.1,0h-3.8c-0.2,0-0.3,0.1-0.3,0.2c0,0,0,0.1,0,0.1v14.8
	c0,0.2,0.1,0.3,0.2,0.3c0,0,0.1,0,0.1,0H43.6L43.6,21.8z M66.3,21c1.2-0.7,2.1-1.9,2.5-3.2c0.2-0.6,0.3-1.1,0.4-1.7
	c0.2-1.3,0.2-2.7,0-4.1c-0.1-0.6-0.2-1.2-0.4-1.7c-0.4-1.3-1.3-2.5-2.5-3.2c-2.6-1.5-5.9-1.5-8.5,0c-1.2,0.7-2.1,1.9-2.5,3.2
	c-0.2,0.6-0.3,1.1-0.4,1.7c-0.2,1.3-0.2,2.7,0,4.1c0.1,0.6,0.2,1.2,0.4,1.7c0.4,1.3,1.3,2.5,2.5,3.2C60.5,22.5,63.7,22.5,66.3,21
	L66.3,21z M59.7,16.7c-0.1-0.4-0.2-0.7-0.2-1.1c-0.1-1-0.1-2.1,0-3.1c0-0.4,0.1-0.7,0.2-1.1c0.5-1.3,2-2,3.3-1.5
	c0.7,0.3,1.2,0.8,1.5,1.5c0.1,0.4,0.2,0.7,0.2,1.1c0.1,1,0.1,2.1,0,3.1c0,0.4-0.1,0.7-0.2,1.1c-0.5,1.3-2,2-3.3,1.5
	C60.5,17.9,59.9,17.4,59.7,16.7L59.7,16.7z M81.2,21.9c0.2,0,0.3-0.1,0.3-0.2c0,0,0-0.1,0-0.1v-3.1c0-0.2-0.1-0.3-0.2-0.3
	c0,0-0.1,0-0.1,0h-0.7c-0.4,0-0.7-0.1-1-0.3c-0.2-0.3-0.4-0.7-0.3-1.1V0.3C79.3,0.2,79.1,0,79,0c0,0-0.1,0-0.1,0h-3.8
	c-0.2,0-0.3,0.1-0.3,0.2c0,0,0,0.1,0,0.1V17c-0.1,1.3,0.3,2.7,1.1,3.8c1,0.9,2.4,1.3,3.7,1.2H81.2L81.2,21.9z M94.4,21.9
	c0.2,0,0.3-0.1,0.3-0.2c0,0,0-0.1,0-0.1v-3.1c0-0.2-0.1-0.3-0.2-0.3c0,0-0.1,0-0.1,0h-0.7c-0.4,0-0.7-0.1-1-0.3
	c-0.2-0.3-0.4-0.7-0.3-1.1V0.3c0-0.2-0.1-0.3-0.2-0.3c0,0-0.1,0-0.1,0h-3.8C88.1,0,88,0.1,88,0.2c0,0,0,0.1,0,0.1V17
	c-0.1,1.3,0.3,2.7,1.1,3.8c1,0.9,2.4,1.3,3.7,1.2H94.4L94.4,21.9z"/>
</svg>
