<svg xmlns="http://www.w3.org/2000/svg" width="89.812" height="21.06" viewBox="0 0 89.812 21.06">
  <defs>
    <style>
      .cls-1 {
        fill-rule: evenodd;
      }
    </style>
  </defs>
  <path id="close.svg" class="cls-1" d="M333.474,6128.33a8.082,8.082,0,0,0,4.575,1.24,7.921,7.921,0,0,0,4.425-1.18,7.013,7.013,0,0,0,2.685-3.35,0.218,0.218,0,0,0-.15-0.36l-3.27-1.47a0.272,0.272,0,0,0-.42.15,4.434,4.434,0,0,1-1.185,1.65,3.04,3.04,0,0,1-2.055.66,3.089,3.089,0,0,1-1.965-.6,3.281,3.281,0,0,1-1.095-1.65,4.453,4.453,0,0,1-.15-0.58c-0.041-.21-0.075-0.48-0.105-0.8s-0.05-.72-0.06-1.2-0.015-1.08-.015-1.8,0-1.32.015-1.8,0.03-.88.06-1.2,0.064-.58.105-0.79a4.615,4.615,0,0,1,.15-0.59,3.281,3.281,0,0,1,1.095-1.65,3.089,3.089,0,0,1,1.965-.6,3.04,3.04,0,0,1,2.055.66,4.434,4.434,0,0,1,1.185,1.65,0.272,0.272,0,0,0,.42.15l3.27-1.47a0.218,0.218,0,0,0,.15-0.36,6.987,6.987,0,0,0-2.685-3.34,7.924,7.924,0,0,0-4.425-1.19,8.086,8.086,0,0,0-4.575,1.25,6.827,6.827,0,0,0-2.685,3.76,8.324,8.324,0,0,0-.285.99,9.349,9.349,0,0,0-.165,1.1q-0.061.615-.09,1.44c-0.02.55-.03,1.21-0.03,1.99s0.01,1.45.03,2,0.049,1.03.09,1.44a9.878,9.878,0,0,0,.165,1.11,6.717,6.717,0,0,0,.285.97A6.853,6.853,0,0,0,333.474,6128.33Zm16.585,0.61a0.265,0.265,0,0,0,.3.3h13.29a0.263,0.263,0,0,0,.3-0.29v-3.31a0.266,0.266,0,0,0-.3-0.3h-9a0.159,0.159,0,0,1-.18-0.18v-16.02a0.266,0.266,0,0,0-.3-0.3h-3.81a0.265,0.265,0,0,0-.3.3v19.8Zm29.635-.6a6.45,6.45,0,0,0,2.775-3.72,9.387,9.387,0,0,0,.285-1.05,10.994,10.994,0,0,0,.165-1.14q0.06-.63.09-1.44t0.03-1.95q0-1.14-.03-1.95t-0.09-1.44a10.994,10.994,0,0,0-.165-1.14,9.387,9.387,0,0,0-.285-1.05,6.5,6.5,0,0,0-2.775-3.7,9.33,9.33,0,0,0-9.33,0,6.492,6.492,0,0,0-2.775,3.7,9.176,9.176,0,0,0-.285,1.05,10.478,10.478,0,0,0-.165,1.14q-0.062.63-.09,1.44t-0.03,1.95q0,1.14.03,1.95t0.09,1.44a10.478,10.478,0,0,0,.165,1.14,9.176,9.176,0,0,0,.285,1.05,6.441,6.441,0,0,0,2.775,3.72A9.461,9.461,0,0,0,379.694,6128.34Zm-6.735-3.27a3.17,3.17,0,0,1-1.14-1.65,4.189,4.189,0,0,1-.15-0.61c-0.041-.23-0.075-0.51-0.1-0.84s-0.05-.74-0.06-1.22-0.015-1.05-.015-1.71,0-1.23.015-1.71,0.03-.88.06-1.21,0.064-.61.1-0.84a4.342,4.342,0,0,1,.15-0.62,3.17,3.17,0,0,1,1.14-1.65,3.871,3.871,0,0,1,4.14,0,3.176,3.176,0,0,1,1.14,1.65,4.481,4.481,0,0,1,.15.62q0.06,0.345.105,0.84c0.03,0.33.049,0.73,0.06,1.21s0.015,1.05.015,1.71,0,1.23-.015,1.71-0.03.89-.06,1.22-0.065.61-.105,0.84a4.322,4.322,0,0,1-.15.61,3.176,3.176,0,0,1-1.14,1.65A3.871,3.871,0,0,1,372.959,6125.07Zm24.35,4.02a7.2,7.2,0,0,0,2.5-1.33,5.519,5.519,0,0,0,1.515-2.04,6.443,6.443,0,0,0,.51-2.57,5.5,5.5,0,0,0-1.62-4.27,8.633,8.633,0,0,0-4.8-1.91l-1.08-.15a5.175,5.175,0,0,1-2.475-.81,1.775,1.775,0,0,1-.7-1.44,2.057,2.057,0,0,1,.69-1.59,2.932,2.932,0,0,1,2.04-.63,7.5,7.5,0,0,1,2.415.39,9.964,9.964,0,0,1,2.325,1.17,0.283,0.283,0,0,0,.42-0.09l1.83-2.73a0.273,0.273,0,0,0-.06-0.45,9.967,9.967,0,0,0-3.09-1.56,12.648,12.648,0,0,0-3.84-.57,9.3,9.3,0,0,0-2.985.45,6.792,6.792,0,0,0-2.28,1.26,5.474,5.474,0,0,0-1.455,1.97,6.242,6.242,0,0,0-.51,2.56,5.364,5.364,0,0,0,1.665,4.22,8.8,8.8,0,0,0,4.785,1.9l1.08,0.15a4.979,4.979,0,0,1,2.49.81,1.856,1.856,0,0,1,.66,1.47,2.142,2.142,0,0,1-.855,1.76,3.923,3.923,0,0,1-2.475.67,6.8,6.8,0,0,1-2.97-.64,12.349,12.349,0,0,1-2.37-1.46,0.28,0.28,0,0,0-.45.03l-2.28,2.61a0.345,0.345,0,0,0,.03.51,8.209,8.209,0,0,0,1.455,1.08,11.2,11.2,0,0,0,1.875.89,14.087,14.087,0,0,0,2.175.6,12.278,12.278,0,0,0,2.355.22A11.438,11.438,0,0,0,397.309,6129.09Zm9.05-.15a0.265,0.265,0,0,0,.3.3h13.08a0.266,0.266,0,0,0,.3-0.3v-3.21a0.266,0.266,0,0,0-.3-0.3h-8.79a0.159,0.159,0,0,1-.18-0.18v-4.23a0.159,0.159,0,0,1,.18-0.18h7.32a0.266,0.266,0,0,0,.3-0.3v-3.18a0.266,0.266,0,0,0-.3-0.3h-7.32a0.159,0.159,0,0,1-.18-0.18v-4.05a0.159,0.159,0,0,1,.18-0.18h8.79a0.266,0.266,0,0,0,.3-0.3v-3.21a0.266,0.266,0,0,0-.3-0.3h-13.08a0.265,0.265,0,0,0-.3.3v19.8Z" transform="translate(-330.219 -6108.5)"/>
</svg>
