<svg xmlns="http://www.w3.org/2000/svg" width="22.938" height="15.94" viewBox="0 0 22.938 15.94">
  <defs>
    <style>
      .cls-1 {
        fill: #133ec8;
        fill-rule: evenodd;
      }
    </style>
  </defs>
  <path id="_02.svg" data-name="02.svg" class="cls-1" d="M89.659,2031.21a4.511,4.511,0,0,0,1.474-3.59v-6.16a4.532,4.532,0,0,0-1.474-3.6,5.568,5.568,0,0,0-7.128,0,4.531,4.531,0,0,0-1.474,3.6v6.16a4.51,4.51,0,0,0,1.474,3.59A5.568,5.568,0,0,0,89.659,2031.21Zm-2.134-3.57a1.66,1.66,0,0,1-.4,1.21,1.411,1.411,0,0,1-1.034.39,1.387,1.387,0,0,1-1.023-.4,1.622,1.622,0,0,1-.407-1.2v-6.18a1.682,1.682,0,0,1,.407-1.23,1.387,1.387,0,0,1,1.023-.4,1.356,1.356,0,0,1,1.034.42,1.676,1.676,0,0,1,.4,1.21v6.18Zm16.469,4.75v-3.26H98.318l3.74-3.96a10.831,10.831,0,0,0,1.507-1.92,3.966,3.966,0,0,0,.429-1.94,4.463,4.463,0,0,0-1.4-3.46,5.163,5.163,0,0,0-3.619-1.28,5.274,5.274,0,0,0-3.608,1.28,4.407,4.407,0,0,0-1.452,3.5h3.608a1.449,1.449,0,0,1,.418-1.18,1.567,1.567,0,0,1,1.034-.34,1.262,1.262,0,0,1,1.408,1.45,2.537,2.537,0,0,1-.792,1.68l-5.676,6.17v3.26h10.076Z" transform="translate(-81.063 -2016.56)"/>
</svg>
