<svg xmlns="http://www.w3.org/2000/svg" width="23.156" height="15.94" viewBox="0 0 23.156 15.94">
  <defs>
    <style>
      .cls-1 {
        fill: #133ec8;
        fill-rule: evenodd;
      }
    </style>
  </defs>
  <path id="_03.svg" data-name="03.svg" class="cls-1" d="M89.659,2282.21a4.511,4.511,0,0,0,1.474-3.59v-6.16a4.532,4.532,0,0,0-1.474-3.6,5.568,5.568,0,0,0-7.128,0,4.531,4.531,0,0,0-1.474,3.6v6.16a4.51,4.51,0,0,0,1.474,3.59A5.568,5.568,0,0,0,89.659,2282.21Zm-2.134-3.57a1.66,1.66,0,0,1-.4,1.21,1.411,1.411,0,0,1-1.034.39,1.387,1.387,0,0,1-1.023-.4,1.622,1.622,0,0,1-.407-1.2v-6.18a1.682,1.682,0,0,1,.407-1.23,1.387,1.387,0,0,1,1.023-.4,1.356,1.356,0,0,1,1.034.42,1.676,1.676,0,0,1,.4,1.21v6.18Zm15.206,3.62a4.388,4.388,0,0,0,1.5-3.58,3.886,3.886,0,0,0-.484-2.07,4.592,4.592,0,0,0-1.32-1.34,3.7,3.7,0,0,0,1.188-1.16,3.548,3.548,0,0,0,.44-1.9,4.3,4.3,0,0,0-1.43-3.34,5.641,5.641,0,0,0-7.2,0,4.451,4.451,0,0,0-1.441,3.48h3.608a1.473,1.473,0,0,1,.418-1.11,1.366,1.366,0,0,1,1.012-.41,1.358,1.358,0,0,1,1.43,1.49,1.563,1.563,0,0,1-.374,1.04,1.4,1.4,0,0,1-1.122.44H98.441v3.12h0.506a1.666,1.666,0,0,1,1.21.46,1.622,1.622,0,0,1,.462,1.19,1.684,1.684,0,0,1-.429,1.27,1.642,1.642,0,0,1-1.177.4,1.591,1.591,0,0,1-1.155-.43,1.637,1.637,0,0,1-.451-1.24H93.8a4.457,4.457,0,0,0,1.518,3.71,5.732,5.732,0,0,0,3.7,1.22A5.611,5.611,0,0,0,102.731,2282.26Z" transform="translate(-81.063 -2267.56)"/>
</svg>
