<svg xmlns="http://www.w3.org/2000/svg" width="23.656" height="15.94" viewBox="0 0 23.656 15.94">
  <defs>
    <style>
      .cls-1 {
        fill: #133ec8;
        fill-rule: evenodd;
      }
    </style>
  </defs>
  <path id="_04.svg" data-name="04.svg" class="cls-1" d="M89.659,2667.21a4.511,4.511,0,0,0,1.474-3.59v-6.16a4.532,4.532,0,0,0-1.474-3.6,5.568,5.568,0,0,0-7.128,0,4.531,4.531,0,0,0-1.474,3.6v6.16a4.51,4.51,0,0,0,1.474,3.59A5.568,5.568,0,0,0,89.659,2667.21Zm-2.134-3.57a1.66,1.66,0,0,1-.4,1.21,1.411,1.411,0,0,1-1.034.39,1.387,1.387,0,0,1-1.023-.4,1.622,1.622,0,0,1-.407-1.2v-6.18a1.682,1.682,0,0,1,.407-1.23,1.387,1.387,0,0,1,1.023-.4,1.356,1.356,0,0,1,1.034.42,1.676,1.676,0,0,1,.4,1.21v6.18Zm17.186,2.66v-3.43h-1.166v-2.07h-3.432v2.07h-2.53l5.192-10.17h-3.96l-5.192,10.17v3.43h6.49v2.09h3.432v-2.09h1.166Z" transform="translate(-81.063 -2652.56)"/>
</svg>
