<?xml version="1.0" standalone="no"?><!DOCTYPE svg PUBLIC "-//W3C//DTD SVG 1.1//EN" "http://www.w3.org/Graphics/SVG/1.1/DTD/svg11.dtd"><svg width="100%" height="100%" viewBox="0 0 42 42" version="1.1" xmlns="http://www.w3.org/2000/svg" xmlns:xlink="http://www.w3.org/1999/xlink" xml:space="preserve" style="fill-rule:evenodd;clip-rule:evenodd;stroke-linejoin:round;stroke-miterlimit:1.41421;"><g id="レイヤー 1"><g><g opacity="0.850006"><clipPath id="_clip1"><rect x="0" y="0" width="41.805" height="41.805"/></clipPath><g clip-path="url(#_clip1)"><path d="M41.805,20.902c0,11.544 -9.359,20.903 -20.903,20.903c-11.544,0 -20.902,-9.359 -20.902,-20.903c0,-11.544 9.358,-20.902 20.902,-20.902c11.544,0 20.903,9.358 20.903,20.902" style="fill:#000;fill-rule:nonzero;"/></g></g></g><path d="M30.109,25.842c0,-0.013 0.001,-0.026 0.001,-0.039c0,-0.708 -0.574,-1.281 -1.282,-1.281c-0.362,0 -0.688,0.15 -0.922,0.391c0.023,-0.11 0.036,-0.224 0.036,-0.341c0,-0.926 -0.751,-1.676 -1.677,-1.676c-0.652,0 -1.191,0.379 -1.468,0.923c0.03,-0.128 0.02,-0.267 0.02,-0.405c0,-0.97 -0.786,-1.756 -1.757,-1.756c-0.908,0 -1.655,0.69 -1.747,1.574l0.034,-8.054c0,-1.469 -0.81,-2.648 -1.831,-2.648c-1.021,0 -1.832,1.195 -1.832,2.648l-0.01,11.461l-0.434,-1.11c-0.721,-1.033 -2.096,-0.887 -2.817,0.147c-0.356,0.5 -0.334,1.016 -0.334,1.726c0,0.711 0.188,1.373 0.543,1.873l4.295,6.169c0.078,0.113 0.178,0.145 0.278,0.145c0.011,0 0.011,-0.032 0.022,-0.032l9.056,0c1.021,0 1.842,-1.146 1.842,-2.616l0,-4.473l0,-0.436l0.032,-0.753c-0.005,-0.608 0.008,-1.086 -0.048,-1.437" style="fill:#fff;fill-rule:nonzero;"/><path d="M15.597,13.215l-3.369,0c-0.33,0 -0.597,-0.267 -0.597,-0.597c0,-0.33 0.267,-0.597 0.597,-0.597l3.369,0c0.329,0 0.597,0.267 0.597,0.597c0,0.33 -0.268,0.597 -0.597,0.597" style="fill:#fff;fill-rule:nonzero;"/><path d="M19.474,9.476c-0.329,0 -0.597,-0.267 -0.597,-0.597l0,-4.62c0,-0.33 0.268,-0.597 0.597,-0.597c0.33,0 0.598,0.267 0.598,0.597l0,4.62c0,0.33 -0.268,0.597 -0.598,0.597" style="fill:#fff;fill-rule:nonzero;"/><path d="M21.983,10.729c-0.123,0 -0.247,-0.037 -0.353,-0.116c-0.266,-0.195 -0.323,-0.569 -0.127,-0.835l2.524,-3.431c0.195,-0.265 0.569,-0.323 0.835,-0.127c0.266,0.195 0.322,0.569 0.127,0.835l-2.524,3.431c-0.117,0.159 -0.298,0.243 -0.482,0.243" style="fill:#fff;fill-rule:nonzero;"/><path d="M17.014,10.729c-0.184,0 -0.365,-0.084 -0.482,-0.243l-2.524,-3.431c-0.195,-0.266 -0.138,-0.64 0.127,-0.835c0.266,-0.196 0.64,-0.138 0.835,0.127l2.525,3.431c0.195,0.266 0.138,0.64 -0.128,0.835c-0.106,0.079 -0.23,0.116 -0.353,0.116" style="fill:#fff;fill-rule:nonzero;"/><path d="M26.698,13.215l-3.369,0c-0.33,0 -0.597,-0.267 -0.597,-0.597c0,-0.33 0.267,-0.597 0.597,-0.597l3.369,0c0.33,0 0.597,0.267 0.597,0.597c0,0.33 -0.267,0.597 -0.597,0.597" style="fill:#fff;fill-rule:nonzero;"/></g></svg>