<svg xmlns="http://www.w3.org/2000/svg" width="164" height="16.874" viewBox="0 0 82 8.437">
  <defs>
    <style>
      .cls-1 {
        fill: #fff;
        fill-rule: evenodd;
      }
    </style>
  </defs>
  <path id="_200_loading.svg" data-name="200%loading.svg" class="cls-1" d="M759.315,471.052a0.106,0.106,0,0,0,.12.12h1.356a0.106,0.106,0,0,0,.12-0.12v-5.124h0.06l2.892,5.124a0.226,0.226,0,0,0,.2.12H765.5a0.106,0.106,0,0,0,.12-0.12v-7.92a0.106,0.106,0,0,0-.12-0.12h-1.356a0.106,0.106,0,0,0-.12.12v5.136h-0.06l-2.88-5.136a0.226,0.226,0,0,0-.2-0.12h-1.44a0.106,0.106,0,0,0-.12.12v7.92Zm13.574-.24a2.578,2.578,0,0,0,1.11-1.488,3.671,3.671,0,0,0,.114-0.42,4.292,4.292,0,0,0,.066-0.456q0.024-.252.036-0.576t0.012-.78q0-.456-0.012-0.78t-0.036-.576a4.292,4.292,0,0,0-.066-0.456,3.671,3.671,0,0,0-.114-0.42,2.6,2.6,0,0,0-1.11-1.482,3.745,3.745,0,0,0-3.732,0,2.6,2.6,0,0,0-1.11,1.482,3.671,3.671,0,0,0-.114.42,4.292,4.292,0,0,0-.066.456q-0.024.252-.036,0.576t-0.012.78q0,0.456.012,0.78t0.036,0.576a4.292,4.292,0,0,0,.066.456,3.671,3.671,0,0,0,.114.42,2.578,2.578,0,0,0,1.11,1.488A3.785,3.785,0,0,0,772.889,470.812ZM770.2,469.5a1.268,1.268,0,0,1-.456-0.66,1.706,1.706,0,0,1-.06-0.246q-0.024-.138-0.042-0.336t-0.024-.486q-0.006-.288-0.006-0.684t0.006-.684q0.006-.288.024-0.486t0.042-.336a1.706,1.706,0,0,1,.06-0.246,1.268,1.268,0,0,1,.456-0.66,1.548,1.548,0,0,1,1.656,0,1.268,1.268,0,0,1,.456.66,1.706,1.706,0,0,1,.06.246q0.024,0.138.042,0.336t0.024,0.486q0.006,0.288.006,0.684t-0.006.684q-0.006.288-.024,0.486t-0.042.336a1.706,1.706,0,0,1-.06.246,1.268,1.268,0,0,1-.456.66A1.548,1.548,0,0,1,770.2,469.5Zm13.28,1.668a0.14,0.14,0,0,0,.156-0.12l2.1-7.92a0.086,0.086,0,0,0-.1-0.12H784.1a0.125,0.125,0,0,0-.144.12l-1.128,5.124H782.8l-1.44-5.124a0.144,0.144,0,0,0-.144-0.12h-1.044a0.151,0.151,0,0,0-.156.12l-1.392,5.124H778.6l-1.176-5.124a0.134,0.134,0,0,0-.144-0.12h-1.548a0.086,0.086,0,0,0-.1.12l2.112,7.92a0.144,0.144,0,0,0,.144.12h1.2a0.151,0.151,0,0,0,.156-0.12l1.428-5.076H780.7l1.416,5.076a0.151,0.151,0,0,0,.156.12h1.2Zm7.24-.12a0.106,0.106,0,0,0,.12.12h5.316a0.106,0.106,0,0,0,.12-0.119v-1.322a0.106,0.106,0,0,0-.12-0.119h-3.6a0.064,0.064,0,0,1-.072-0.072v-6.408a0.106,0.106,0,0,0-.12-0.12h-1.524a0.106,0.106,0,0,0-.12.12v7.92Zm11.614-.24a2.578,2.578,0,0,0,1.11-1.488,3.671,3.671,0,0,0,.114-0.42,4.292,4.292,0,0,0,.066-0.456q0.024-.252.036-0.576t0.012-.78q0-.456-0.012-0.78t-0.036-.576a4.292,4.292,0,0,0-.066-0.456,3.671,3.671,0,0,0-.114-0.42,2.6,2.6,0,0,0-1.11-1.482,3.745,3.745,0,0,0-3.732,0,2.6,2.6,0,0,0-1.11,1.482,3.671,3.671,0,0,0-.114.42,4.292,4.292,0,0,0-.066.456q-0.024.252-.036,0.576t-0.012.78q0,0.456.012,0.78t0.036,0.576a4.292,4.292,0,0,0,.066.456,3.671,3.671,0,0,0,.114.42,2.578,2.578,0,0,0,1.11,1.488A3.785,3.785,0,0,0,802.329,470.812Zm-2.694-1.308a1.268,1.268,0,0,1-.456-0.66,1.706,1.706,0,0,1-.06-0.246q-0.024-.138-0.042-0.336t-0.024-.486q-0.006-.288-0.006-0.684t0.006-.684q0.006-.288.024-0.486t0.042-.336a1.706,1.706,0,0,1,.06-0.246,1.268,1.268,0,0,1,.456-0.66,1.548,1.548,0,0,1,1.656,0,1.268,1.268,0,0,1,.456.66,1.706,1.706,0,0,1,.06.246q0.024,0.138.042,0.336t0.024,0.486q0.006,0.288.006,0.684t-0.006.684q-0.006.288-.024,0.486t-0.042.336a1.706,1.706,0,0,1-.06.246,1.268,1.268,0,0,1-.456.66A1.548,1.548,0,0,1,799.635,469.5Zm5.228,1.548q-0.036.12,0.084,0.12h1.572a0.151,0.151,0,0,0,.156-0.12l0.456-1.428h2.856l0.468,1.428a0.151,0.151,0,0,0,.156.12h1.56q0.12,0,.084-0.12l-2.76-7.92a0.151,0.151,0,0,0-.156-0.12h-1.512a0.151,0.151,0,0,0-.156.12Zm2.76-2.928,0.924-2.856h0.036l0.924,2.856h-1.884Zm6.332,2.928a0.106,0.106,0,0,0,.12.12h3.036a3.3,3.3,0,0,0,1.8-.456,2.464,2.464,0,0,0,1.02-1.38q0.048-.168.09-0.354a4.35,4.35,0,0,0,.072-0.438q0.03-.252.042-0.6t0.012-.852q0-.5-0.012-0.852t-0.042-.6a4.35,4.35,0,0,0-.072-0.438q-0.042-.186-0.09-0.354a2.464,2.464,0,0,0-1.02-1.38,3.3,3.3,0,0,0-1.8-.456h-3.036a0.106,0.106,0,0,0-.12.12v7.92Zm1.764-6.408a0.064,0.064,0,0,1,.072-0.072h0.924a2.084,2.084,0,0,1,.984.2,1.129,1.129,0,0,1,.528.7,1.5,1.5,0,0,1,.06.211,2.905,2.905,0,0,1,.042.3c0.012,0.12.02,0.269,0.024,0.446s0.006,0.4.006,0.663,0,0.488-.006.669-0.012.332-.024,0.452a2.905,2.905,0,0,1-.042.3,1.094,1.094,0,0,1-.06.2,1.129,1.129,0,0,1-.528.7,2.084,2.084,0,0,1-.984.2h-0.924a0.064,0.064,0,0,1-.072-0.073v-4.895Zm6.956,6.408a0.106,0.106,0,0,0,.12.12h1.524a0.106,0.106,0,0,0,.12-0.12v-7.92a0.106,0.106,0,0,0-.12-0.12H822.8a0.106,0.106,0,0,0-.12.12v7.92Zm3.72,0a0.106,0.106,0,0,0,.12.12h1.356a0.106,0.106,0,0,0,.12-0.12v-5.124h0.06l2.892,5.124a0.226,0.226,0,0,0,.2.12h1.428a0.106,0.106,0,0,0,.12-0.12v-7.92a0.106,0.106,0,0,0-.12-0.12h-1.356a0.106,0.106,0,0,0-.12.12v5.136h-0.06l-2.88-5.136a0.226,0.226,0,0,0-.2-0.12h-1.44a0.106,0.106,0,0,0-.12.12v7.92Zm9.842-.24a3.529,3.529,0,0,0,1.89.492,3.288,3.288,0,0,0,1.878-.528,2.76,2.76,0,0,0,1.1-1.512,4,4,0,0,0,.156-0.816q0.048-.48.048-1.02v-0.672a0.106,0.106,0,0,0-.12-0.12h-2.808a0.106,0.106,0,0,0-.12.12v1.152a0.106,0.106,0,0,0,.12.12h1.1a0.064,0.064,0,0,1,.072.072,3.738,3.738,0,0,1-.024.456,2.051,2.051,0,0,1-.072.348,1.1,1.1,0,0,1-.492.624,1.555,1.555,0,0,1-.816.216,1.446,1.446,0,0,1-.87-0.24,1.255,1.255,0,0,1-.462-0.66,1.706,1.706,0,0,1-.06-0.246q-0.024-.138-0.042-0.336t-0.024-.486q-0.006-.288-0.006-0.684t0.006-.678q0.006-.282.024-0.48t0.042-.336a1.706,1.706,0,0,1,.06-0.246,1.3,1.3,0,0,1,.456-0.666,1.372,1.372,0,0,1,.852-0.246,1.527,1.527,0,0,1,.834.21,1.759,1.759,0,0,1,.57.63,0.12,0.12,0,0,0,.168.06l1.284-.54a0.12,0.12,0,0,0,.048-0.18,2.552,2.552,0,0,0-.4-0.69,2.6,2.6,0,0,0-.624-0.552,3.1,3.1,0,0,0-.834-0.366,3.843,3.843,0,0,0-1.044-.132,3.529,3.529,0,0,0-1.89.492,2.578,2.578,0,0,0-1.11,1.488,3.671,3.671,0,0,0-.114.42,4.292,4.292,0,0,0-.066.456q-0.024.252-.036,0.576t-0.012.78q0,0.456.012,0.78t0.036,0.576a4.292,4.292,0,0,0,.066.456,3.671,3.671,0,0,0,.114.42A2.578,2.578,0,0,0,836.237,470.812Z" transform="translate(-759.312 -462.875)"/>
</svg>
