<svg xmlns="http://www.w3.org/2000/svg" width="191.626" height="44.242" viewBox="0 0 95.813 22.121">
  <defs>
    <style>
      .cls-1 {
        fill: #fff;
        fill-rule: evenodd;
      }
    </style>
  </defs>
  <path id="_200_scroll.svg" data-name="200%scroll.svg" class="cls-1" d="M340.059,1020.13a4.819,4.819,0,0,0,1.808-3.86,4.446,4.446,0,0,0-1.2-3.2,6.144,6.144,0,0,0-3.952-1.5l-1.7-.19a4.032,4.032,0,0,1-1.728-.43,1.007,1.007,0,0,1-.416-0.85,1.111,1.111,0,0,1,.481-0.93,2.527,2.527,0,0,1,1.471-.35,7.026,7.026,0,0,1,2.305.37,8.426,8.426,0,0,1,1.887.88,0.318,0.318,0,0,0,.448-0.07l1.792-2.2a0.33,0.33,0,0,0-.031-0.48,9.171,9.171,0,0,0-2.688-1.38,11.172,11.172,0,0,0-3.585-.54,7.4,7.4,0,0,0-4.7,1.32,4.4,4.4,0,0,0-1.664,3.63,4.249,4.249,0,0,0,1.295,3.3,6.412,6.412,0,0,0,3.761,1.44l1.727,0.19a3.736,3.736,0,0,1,1.777.47,1.048,1.048,0,0,1,.432.88,1.238,1.238,0,0,1-.592,1.05,3.144,3.144,0,0,1-1.808.42,7.235,7.235,0,0,1-2.465-.45,8,8,0,0,1-2.272-1.25,0.3,0.3,0,0,0-.447,0l-2.081,2.34a0.282,0.282,0,0,0,0,.45,10.585,10.585,0,0,0,2.864,1.68,10.924,10.924,0,0,0,4.176.72A7.869,7.869,0,0,0,340.059,1020.13ZM358,1020.77a6.226,6.226,0,0,0,2.337-2.1,0.305,0.305,0,0,0-.065-0.44l-2.784-1.83a0.313,0.313,0,0,0-.48.07,3.476,3.476,0,0,1-1.072,1.02,2.8,2.8,0,0,1-1.392.32,2.732,2.732,0,0,1-1.519-.41,2.255,2.255,0,0,1-.881-1.25,5.181,5.181,0,0,1-.223-1.09,18.993,18.993,0,0,1,0-3.14,5.181,5.181,0,0,1,.223-1.09,2.2,2.2,0,0,1,.881-1.24,2.657,2.657,0,0,1,1.519-.42,2.8,2.8,0,0,1,1.392.32,3.73,3.73,0,0,1,1.072,1.02,0.307,0.307,0,0,0,.48.07l2.784-1.83a0.3,0.3,0,0,0,.065-0.44,6.31,6.31,0,0,0-2.337-2.1,7.309,7.309,0,0,0-3.52-.81,7.751,7.751,0,0,0-4.224,1.1,5.819,5.819,0,0,0-2.464,3.28,7.273,7.273,0,0,0-.367,1.6,19.756,19.756,0,0,0,0,4.22,7.142,7.142,0,0,0,.367,1.6,5.819,5.819,0,0,0,2.464,3.28,7.754,7.754,0,0,0,4.224,1.11A7.2,7.2,0,0,0,358,1020.77Zm13.44,0.46a0.28,0.28,0,0,0,.32-0.32v-8.16a4.375,4.375,0,0,1,.576-2.43,2.214,2.214,0,0,1,1.824-.93,3.962,3.962,0,0,1,2.24.71,0.362,0.362,0,0,0,.448-0.06l1.792-3.27a0.342,0.342,0,0,0-.1-0.45,3.516,3.516,0,0,0-1.231-.68,4.681,4.681,0,0,0-1.489-.24,5.346,5.346,0,0,0-2.464.52,3.758,3.758,0,0,0-1.568,1.46h-0.032v-1.31a0.28,0.28,0,0,0-.32-0.32H367.6a0.28,0.28,0,0,0-.32.32v14.84a0.28,0.28,0,0,0,.32.32h3.84Zm23.76-.76a5.752,5.752,0,0,0,2.464-3.23,11.46,11.46,0,0,0,.384-1.72,16.161,16.161,0,0,0,0-4.06,11.064,11.064,0,0,0-.384-1.71,5.741,5.741,0,0,0-2.464-3.24,8.714,8.714,0,0,0-8.512,0,5.74,5.74,0,0,0-2.463,3.24,10.951,10.951,0,0,0-.385,1.71,16.161,16.161,0,0,0,0,4.06,11.34,11.34,0,0,0,.385,1.72,5.75,5.75,0,0,0,2.463,3.23A8.646,8.646,0,0,0,395.2,1020.47Zm-6.655-4.32a6.62,6.62,0,0,1-.225-1.11,18.8,18.8,0,0,1,0-3.1,6.828,6.828,0,0,1,.225-1.11,2.565,2.565,0,0,1,4.8,0,6.821,6.821,0,0,1,.223,1.11,18.513,18.513,0,0,1,0,3.1,6.614,6.614,0,0,1-.223,1.11,2.565,2.565,0,0,1-4.8,0h0Zm21.567,5.28a0.284,0.284,0,0,0,.32-0.32v-3.14a0.284,0.284,0,0,0-.32-0.32h-0.672a1.337,1.337,0,0,1-1.024-.34,1.608,1.608,0,0,1-.319-1.13V999.8a0.283,0.283,0,0,0-.321-0.32h-3.84a0.282,0.282,0,0,0-.319.32V1016.5a5.345,5.345,0,0,0,1.1,3.76,4.913,4.913,0,0,0,3.695,1.17h1.7Zm13.2,0a0.284,0.284,0,0,0,.32-0.32v-3.14a0.284,0.284,0,0,0-.32-0.32h-0.672a1.337,1.337,0,0,1-1.024-.34,1.608,1.608,0,0,1-.319-1.13V999.8a0.283,0.283,0,0,0-.321-0.32h-3.84a0.283,0.283,0,0,0-.32.32V1016.5a5.345,5.345,0,0,0,1.105,3.76,4.913,4.913,0,0,0,3.695,1.17h1.7Z" transform="translate(-327.812 -999.469)"/>
</svg>
