<?xml version="1.0" encoding="utf-8"?>
<!-- Generator: Adobe Illustrator 21.1.0, SVG Export Plug-In . SVG Version: 6.00 Build 0)  -->
<svg version="1.1" id="レイヤー_1" xmlns="http://www.w3.org/2000/svg" xmlns:xlink="http://www.w3.org/1999/xlink" x="0px"
	 y="0px" viewBox="0 0 439 31.2" style="enable-background:new 0 0 439 31.2;" xml:space="preserve">
<style type="text/css">
	.st0{fill:#1E41E6;}
	.st1{fill:#FFFFFF;}
</style>
<g>
	<g>
		<g>
			<rect x="0.5" y="0.4" class="st0" width="3.1" height="23.6"/>
		</g>
		<g>
			<path class="st1" d="M20.2,24V13.8c0-1.4-0.4-2.5-1.1-3.1c-0.7-0.7-1.6-1-2.7-1c-1,0-2,0.3-2.7,1c-0.8,0.7-1.1,1.7-1.1,3.1V24
				H9.7V7.3h2.8v2.2L13,8.9c0.6-0.6,1.2-1.1,2-1.4S16.6,7,17.4,7s1.6,0.1,2.3,0.4C20.4,7.7,21,8,21.5,8.5c0.6,0.6,1.1,1.3,1.3,2.1
				c0.2,0.8,0.4,1.6,0.4,2.6v10.7L20.2,24L20.2,24z"/>
		</g>
		<g>
			<path class="st1" d="M39.1,24V13.8c0-1.4-0.4-2.5-1.1-3.1c-0.7-0.7-1.6-1-2.7-1c-1,0-2,0.3-2.7,1c-0.8,0.7-1.1,1.7-1.1,3.1V24
				h-2.9V7.3h2.8v2.2l0.5-0.6c0.6-0.6,1.2-1.1,2-1.4S35.5,7,36.3,7s1.6,0.1,2.3,0.4c0.7,0.3,1.3,0.6,1.8,1.1
				c0.6,0.6,1.1,1.3,1.3,2.1c0.2,0.8,0.4,1.6,0.4,2.6v10.7L39.1,24L39.1,24z"/>
		</g>
		<g>
			<path class="st1" d="M52.9,24.2c-1.1,0-2.1-0.2-2.9-0.6s-1.5-0.8-2-1.4c-0.8-0.8-1.3-1.8-1.6-2.8c-0.3-1.1-0.4-2.3-0.4-3.8
				c0-1.4,0.1-2.7,0.4-3.8c0.3-1,0.8-2,1.6-2.8c0.5-0.6,1.2-1,2-1.4S51.8,7,52.9,7s2.1,0.2,2.9,0.6s1.5,0.8,2,1.4
				c0.8,0.8,1.3,1.8,1.6,2.8c0.3,1.1,0.4,2.3,0.4,3.8c0,1.4-0.1,2.7-0.4,3.8c-0.3,1-0.8,2-1.6,2.8c-0.5,0.6-1.2,1-2,1.4
				C55.1,24,54.1,24.2,52.9,24.2z M52.9,9.7c-1.1,0-2,0.4-2.7,1.1c-0.6,0.6-0.9,1.3-1.1,2.2c-0.1,0.9-0.2,1.8-0.2,2.7
				s0.1,1.9,0.2,2.7c0.1,0.9,0.5,1.6,1.1,2.2c0.7,0.7,1.6,1.1,2.7,1.1s2-0.4,2.8-1.1c0.6-0.6,0.9-1.3,1.1-2.2
				c0.1-0.8,0.2-1.8,0.2-2.7s-0.1-1.9-0.2-2.7c-0.1-0.9-0.5-1.6-1.1-2.2C55,10,54.1,9.7,52.9,9.7z"/>
		</g>
		<g>
			<polygon class="st1" points="68.1,24 62,7.3 65.1,7.3 69.3,20.1 73.6,7.3 76.6,7.3 70.5,24 			"/>
		</g>
		<g>
			<path class="st1" d="M84.9,24.2c-1,0-1.9-0.1-2.6-0.4c-0.7-0.2-1.3-0.6-1.8-1.1c-0.8-0.9-1.3-2.1-1.3-3.5s0.5-2.5,1.4-3.4
				s2.4-1.3,4.3-1.3h4.8V13c0-1.2-0.3-2.1-1-2.6c-0.6-0.6-1.7-0.9-3.1-0.9c-1,0-1.8,0.1-2.4,0.4c-0.5,0.2-1,0.6-1.4,1.1l-1.9-1.7
				c0.7-0.8,1.5-1.4,2.3-1.7c0.9-0.3,2.1-0.5,3.5-0.5c4.6,0,6.8,1.8,6.8,5.6v11.2h-2.8v-2l-0.5,0.5c-0.6,0.6-1.2,1-1.9,1.3
				C86.8,24.1,86,24.2,84.9,24.2z M85.4,16.4c-1.1,0-1.9,0.2-2.5,0.7S82,18.3,82,19.2s0.3,1.6,0.9,2c0.6,0.5,1.4,0.7,2.6,0.7
				c0.7,0,1.3-0.1,1.8-0.2c0.6-0.1,1.1-0.4,1.6-0.9c0.6-0.6,0.8-1.5,0.8-2.8v-1.6H85.4z"/>
		</g>
		<g>
			<path class="st1" d="M103.5,24c-0.8,0-1.4-0.1-2-0.4c-0.5-0.3-1-0.6-1.4-1s-0.6-0.9-0.8-1.4S99,20.1,99,19.5V9.7h-2V7.6h2V2.4
				h2.9v5.2h3.3v2.1H102v9.6c0,0.7,0.2,1.3,0.5,1.7c0.4,0.4,0.9,0.6,1.7,0.6h1.1V24L103.5,24L103.5,24z"/>
		</g>
		<g>
			<path class="st1" d="M111.1,24V7.3h2.9V24H111.1z M111,3.4V0.3h3.1v3.1H111z"/>
		</g>
		<g>
			<polygon class="st1" points="124.9,24 118.8,7.3 121.9,7.3 126.2,20.1 130.4,7.3 133.5,7.3 127.3,24 			"/>
		</g>
		<g>
			<path class="st1" d="M143,24.2c-1.1,0-2-0.2-3-0.4c-0.9-0.3-1.7-0.8-2.3-1.4c-0.7-0.7-1.2-1.5-1.6-2.6c-0.4-1.1-0.6-2.5-0.6-4.1
				c0-2.7,0.7-4.9,1.9-6.3c1.3-1.5,3-2.2,5.1-2.2c1.1,0,2.1,0.2,3,0.6s1.6,0.9,2.2,1.6c0.6,0.7,1.1,1.5,1.4,2.5
				c0.3,1,0.5,2.1,0.5,3.3v1.2h-11.2v0.3c0,1.6,0.4,2.8,1.2,3.7c0.8,0.9,2,1.4,3.5,1.4c1,0,1.8-0.2,2.5-0.5c0.6-0.3,1.1-0.7,1.7-1.2
				l1.8,1.7c-0.4,0.4-0.7,0.7-1.1,0.9c-0.4,0.3-0.9,0.6-1.4,0.8c-0.5,0.2-1,0.4-1.6,0.5C144.4,24.2,143.7,24.2,143,24.2z M142.6,9.5
				c-0.9,0-1.6,0.2-2.3,0.6c-0.6,0.4-1.1,1-1.4,1.7c-0.2,0.4-0.3,0.8-0.4,1.1c0,0.3-0.1,0.8-0.1,1.3v0.3h8.3v-0.3
				c0-0.5-0.1-1-0.1-1.3c-0.1-0.4-0.2-0.7-0.4-1.1c-0.3-0.7-0.8-1.3-1.4-1.7C144.2,9.7,143.4,9.5,142.6,9.5z"/>
		</g>
		<g>
			<path class="st0" d="M174.9,24.2c-1.2,0-2.4-0.2-3.4-0.6s-2-1.1-2.8-1.9c-0.6-0.6-1-1.2-1.3-1.8c-0.3-0.6-0.5-1.3-0.7-2.1
				c-0.1-0.8-0.2-1.6-0.2-2.5s0-2,0-3.1c0-1.2,0-2.2,0-3.1s0.1-1.8,0.2-2.5c0.1-0.7,0.4-1.4,0.7-2.1c0.3-0.6,0.7-1.2,1.3-1.8
				c0.8-0.8,1.7-1.4,2.7-1.9c1-0.4,2.2-0.6,3.4-0.6s2.4,0.2,3.3,0.6c1,0.4,1.8,0.9,2.5,1.6s1.3,1.4,1.7,2.3c0.4,0.8,0.7,1.6,0.9,2.5
				h-3.1c-0.3-1.3-0.9-2.3-1.8-3c-0.9-0.8-2.1-1.2-3.5-1.2c-0.8,0-1.5,0.1-2.1,0.4s-1.2,0.7-1.7,1.2c-0.3,0.3-0.6,0.7-0.8,1.1
				s-0.4,0.9-0.5,1.5s-0.2,1.3-0.2,2.1c0,0.8-0.1,1.8-0.1,3.1c0,1.3,0,2.3,0.1,3.1c0,0.8,0.1,1.5,0.2,2.1c0.1,0.6,0.3,1.1,0.5,1.5
				s0.5,0.8,0.8,1.1c0.5,0.5,1,0.9,1.7,1.1c0.6,0.3,1.4,0.4,2.1,0.4c0.8,0,1.6-0.2,2.3-0.5s1.3-0.8,1.8-1.3s0.8-1.2,1-1.8
				c0.2-0.6,0.3-1.4,0.3-2.2v-1.6H175v-2.5h8.3v3.4c0,1.5-0.2,2.8-0.5,3.8s-0.9,2-1.6,2.8c-0.9,0.9-1.9,1.6-3,2
				C177.3,24,176.2,24.2,174.9,24.2z"/>
		</g>
		<g>
			<path class="st1" d="M193,24c-0.8,0-1.5-0.1-2-0.4c-0.6-0.2-1-0.6-1.4-1s-0.6-0.9-0.8-1.4c-0.2-0.5-0.3-1.1-0.3-1.7V0.4h2.9v19
				c0,0.7,0.2,1.3,0.5,1.7c0.3,0.4,0.9,0.6,1.7,0.6h1.2v2.4H193V24z"/>
		</g>
		<g>
			<path class="st1" d="M205,24.2c-1.1,0-2.1-0.2-2.9-0.6s-1.5-0.8-2-1.4c-0.8-0.8-1.3-1.8-1.6-2.8c-0.3-1.1-0.4-2.3-0.4-3.8
				c0-1.4,0.1-2.7,0.4-3.8c0.3-1,0.8-2,1.6-2.8c0.5-0.6,1.2-1,2-1.4S203.9,7,205,7s2.1,0.2,2.9,0.6s1.5,0.8,2,1.4
				c0.8,0.8,1.3,1.8,1.6,2.8c0.3,1.1,0.4,2.3,0.4,3.8c0,1.4-0.1,2.7-0.4,3.8c-0.3,1-0.8,2-1.6,2.8c-0.5,0.6-1.2,1-2,1.4
				C207.1,24,206.2,24.2,205,24.2z M205,9.7c-1.1,0-2,0.4-2.7,1.1c-0.6,0.6-0.9,1.3-1.1,2.2c-0.1,0.9-0.2,1.8-0.2,2.7
				s0.1,1.9,0.2,2.7c0.1,0.9,0.5,1.6,1.1,2.2c0.7,0.7,1.6,1.1,2.7,1.1s2-0.4,2.8-1.1c0.6-0.6,0.9-1.3,1.1-2.2
				c0.1-0.8,0.2-1.8,0.2-2.7s-0.1-1.9-0.2-2.7c-0.1-0.9-0.5-1.6-1.1-2.2C207.1,10,206.1,9.7,205,9.7z"/>
		</g>
		<g>
			<path class="st1" d="M223.8,24.2c-0.9,0-1.7-0.1-2.4-0.4c-0.7-0.3-1.3-0.8-1.9-1.5l-0.5-0.6V24h-2.8V0.4h2.9v9.2l0.5-0.6
				c0.6-0.7,1.2-1.2,1.9-1.4c0.7-0.3,1.5-0.4,2.4-0.4c0.8,0,1.6,0.1,2.3,0.4c0.7,0.3,1.3,0.6,1.7,1.1c0.4,0.4,0.7,0.9,1,1.4
				c0.2,0.5,0.4,1.1,0.6,1.7c0.1,0.6,0.2,1.3,0.2,1.9c0,0.7,0.1,1.3,0.1,2s0,1.3-0.1,2c0,0.7-0.1,1.3-0.2,1.9s-0.3,1.2-0.6,1.8
				c-0.2,0.5-0.6,1-1,1.4s-1,0.8-1.7,1.1C225.4,24.1,224.6,24.2,223.8,24.2z M222.9,9.7c-0.8,0-1.5,0.2-2,0.5s-0.9,0.8-1.2,1.3
				c-0.3,0.6-0.5,1.2-0.5,1.9c-0.1,0.7-0.1,1.4-0.1,2.2s0,1.5,0.1,2.2s0.3,1.4,0.5,1.9c0.3,0.6,0.7,1,1.2,1.4c0.5,0.3,1.2,0.5,2,0.5
				s1.5-0.2,2-0.5s0.9-0.8,1.2-1.4c0.3-0.6,0.4-1.2,0.5-1.9c0.1-0.7,0.1-1.4,0.1-2.2s0-1.5-0.1-2.2s-0.3-1.4-0.5-1.9
				c-0.3-0.6-0.7-1-1.2-1.4C224.4,9.8,223.7,9.7,222.9,9.7z"/>
		</g>
		<g>
			<path class="st1" d="M238.9,24.2c-1,0-1.9-0.1-2.6-0.4c-0.7-0.2-1.3-0.6-1.8-1.1c-0.8-0.9-1.3-2.1-1.3-3.5s0.5-2.5,1.4-3.4
				s2.4-1.3,4.3-1.3h4.8V13c0-1.2-0.3-2.1-1-2.6c-0.6-0.6-1.7-0.9-3.1-0.9c-1,0-1.8,0.1-2.4,0.4c-0.5,0.2-1,0.6-1.4,1.1l-1.9-1.7
				c0.7-0.8,1.5-1.4,2.3-1.7c0.9-0.3,2.1-0.5,3.5-0.5c4.6,0,6.8,1.8,6.8,5.6v11.2h-2.8v-2l-0.5,0.5c-0.6,0.6-1.2,1-1.9,1.3
				C240.8,24.1,239.9,24.2,238.9,24.2z M239.4,16.4c-1.1,0-1.9,0.2-2.5,0.7s-0.9,1.2-0.9,2.1s0.3,1.6,0.9,2c0.6,0.5,1.4,0.7,2.6,0.7
				c0.7,0,1.3-0.1,1.8-0.2c0.6-0.1,1.1-0.4,1.6-0.9c0.6-0.6,0.8-1.5,0.8-2.8v-1.6H239.4z"/>
		</g>
		<g>
			<path class="st1" d="M257,24c-0.8,0-1.5-0.1-2-0.4s-1-0.6-1.4-1s-0.6-0.9-0.8-1.4c-0.2-0.5-0.3-1.1-0.3-1.7V0.4h2.9v19
				c0,0.7,0.2,1.3,0.5,1.7c0.3,0.4,0.9,0.6,1.7,0.6h1.2v2.4H257V24z"/>
		</g>
		<g>
			<polygon class="st0" points="303.8,24 303.8,8.1 303.2,8 297.7,19.6 295.4,19.6 289.7,8 289.2,8.1 289.2,24 286.1,24 286.1,0.4 
				289.3,0.4 296.6,15.8 303.7,0.4 306.9,0.4 306.9,24 			"/>
		</g>
		<g>
			<path class="st1" d="M317.2,24.2c-1,0-1.9-0.1-2.6-0.4c-0.7-0.2-1.3-0.6-1.8-1.1c-0.8-0.9-1.3-2.1-1.3-3.5s0.5-2.5,1.4-3.4
				s2.4-1.3,4.3-1.3h4.8V13c0-1.2-0.3-2.1-1-2.6c-0.6-0.6-1.7-0.9-3.1-0.9c-1,0-1.8,0.1-2.4,0.4c-0.5,0.2-1,0.6-1.4,1.1l-1.9-1.7
				c0.7-0.8,1.5-1.4,2.3-1.7c0.9-0.3,2.1-0.5,3.5-0.5c4.6,0,6.8,1.8,6.8,5.6v11.2H322v-2l-0.5,0.5c-0.6,0.6-1.2,1-1.9,1.3
				C319.1,24.1,318.2,24.2,317.2,24.2z M317.7,16.4c-1.1,0-1.9,0.2-2.5,0.7s-0.9,1.2-0.9,2.1s0.3,1.6,0.9,2c0.6,0.5,1.4,0.7,2.6,0.7
				c0.7,0,1.3-0.1,1.8-0.2c0.6-0.1,1.1-0.4,1.6-0.9c0.6-0.5,0.8-1.5,0.8-2.8v-1.6H317.7z"/>
		</g>
		<g>
			<path class="st1" d="M336.3,24.2c-0.9,0-1.9-0.2-2.7-0.5c-0.9-0.3-1.7-0.8-2.3-1.5c-0.7-0.7-1.2-1.6-1.7-2.6
				c-0.4-1.1-0.6-2.4-0.6-4s0.2-2.9,0.6-4s1-2,1.7-2.6c0.7-0.7,1.5-1.1,2.3-1.4c0.9-0.3,1.8-0.5,2.7-0.5c1.2,0,2.2,0.2,3,0.5
				s1.5,0.9,2.3,1.6l-2,1.9c-0.5-0.5-1-0.9-1.4-1.1c-0.5-0.3-1.2-0.4-1.9-0.4c-1.4,0-2.6,0.6-3.4,1.6c-0.4,0.5-0.7,1.1-0.8,1.8
				c-0.2,0.7-0.2,1.5-0.2,2.6c0,1,0.1,1.9,0.2,2.6c0.2,0.7,0.4,1.3,0.9,1.8c0.8,1.1,2,1.6,3.4,1.6c0.7,0,1.4-0.1,1.9-0.4
				c0.5-0.2,0.9-0.6,1.4-1.1l2,1.9c-0.7,0.7-1.5,1.3-2.3,1.6C338.4,24,337.4,24.2,336.3,24.2z"/>
		</g>
		<g>
			<path class="st1" d="M356.1,24V13.7c0-1.4-0.4-2.4-1.1-3.1c-0.7-0.6-1.6-1-2.7-1c-1,0-1.9,0.3-2.7,1c-0.7,0.7-1.1,1.7-1.1,3.1V24
				h-2.9V0.4h2.9v9.2L349,9c0.6-0.6,1.2-1.1,1.9-1.4c0.7-0.3,1.5-0.5,2.3-0.5c0.9,0,1.7,0.1,2.4,0.4c0.7,0.3,1.3,0.7,1.8,1.2
				s0.8,1.2,1.1,1.9c0.2,0.7,0.4,1.6,0.4,2.5v10.8h-2.8V24z"/>
		</g>
		<g>
			<path class="st1" d="M364.4,24V7.3h2.9V24H364.4z M364.3,3.4V0.3h3.1v3.1H364.3z"/>
		</g>
		<g>
			<path class="st1" d="M383.4,24V13.8c0-1.4-0.4-2.5-1.1-3.1c-0.7-0.7-1.6-1-2.7-1c-1,0-2,0.3-2.7,1c-0.8,0.7-1.1,1.7-1.1,3.1V24
				h-2.9V7.3h2.8v2.2l0.5-0.6c0.6-0.6,1.2-1.1,2-1.4s1.6-0.5,2.4-0.5s1.6,0.1,2.3,0.4c0.7,0.3,1.3,0.6,1.8,1.1
				c0.6,0.6,1,1.3,1.3,2.1c0.2,0.8,0.4,1.6,0.4,2.6v10.7L383.4,24L383.4,24z"/>
		</g>
		<g>
			<path class="st1" d="M397.7,24.2c-1.1,0-2-0.2-3-0.4c-0.9-0.3-1.7-0.8-2.3-1.4c-0.7-0.7-1.2-1.5-1.6-2.6s-0.6-2.5-0.6-4.1
				c0-2.7,0.7-4.9,1.9-6.3c1.3-1.5,3-2.2,5.1-2.2c1.1,0,2.1,0.2,3,0.6s1.6,0.9,2.2,1.6s1.1,1.5,1.4,2.5s0.5,2.1,0.5,3.3v1.2h-11.2
				v0.3c0,1.6,0.4,2.8,1.2,3.7c0.8,0.9,2,1.4,3.5,1.4c1,0,1.8-0.2,2.5-0.5c0.6-0.3,1.1-0.7,1.7-1.2l1.8,1.7
				c-0.4,0.4-0.7,0.7-1.1,0.9c-0.4,0.3-0.9,0.6-1.4,0.8c-0.5,0.2-1,0.4-1.6,0.5C399.1,24.2,398.5,24.2,397.7,24.2z M397.3,9.5
				c-0.9,0-1.6,0.2-2.3,0.6c-0.6,0.4-1.1,1-1.4,1.7c-0.2,0.4-0.3,0.8-0.4,1.1c0,0.3-0.1,0.8-0.1,1.3v0.3h8.3v-0.3
				c0-0.5-0.1-1-0.1-1.3c-0.1-0.4-0.2-0.7-0.4-1.1c-0.3-0.7-0.8-1.3-1.4-1.7S398.2,9.5,397.3,9.5z"/>
		</g>
		<g>
			<path class="st1" d="M409,24V7.3h2.8v2.4l0.5-0.7c0.4-0.6,1-1,1.8-1.4s1.6-0.6,2.6-0.6c0.8,0,1.5,0.1,2.1,0.4
				c0.5,0.2,1.1,0.5,1.6,1l-2.2,2.2c-0.3-0.3-0.7-0.6-1-0.7c-0.4-0.2-0.9-0.3-1.6-0.3c-1,0-1.9,0.4-2.6,1.1s-1.1,1.8-1.1,3v10.2H409
				V24z"/>
		</g>
		<g>
			<path class="st1" d="M425.3,30.8v-2.5h0.6c0.8,0,1.4-0.1,1.8-0.5c0.4-0.3,0.7-0.8,1-1.6l1-2.8l-5.9-16.2h3.1l4.3,12.7l4.2-12.7
				h3.1L431,27.5c-0.3,0.9-0.7,1.6-1.2,2c-0.4,0.4-0.9,0.7-1.5,0.9c-0.6,0.2-1.2,0.3-1.8,0.3h-1.2V30.8z"/>
		</g>
	</g>
</g>
</svg>
